Coordinates
version=1
nRows=9
nColumns=36
inDegrees=yes

Units are S.I. units (second, meters, Newtons, ...)
If the header above contains a line with 'inDegrees', this indicates whether rotational values are in degrees (yes) or radians (no).

endheader
time	pelvis_tilt	pelvis_list	pelvis_rotation	pelvis_tx	pelvis_ty	pelvis_tz	hip_flexion_r	hip_adduction_r	hip_rotation_r	knee_angle_r	knee_angle_r_beta	ankle_angle_r	subtalar_angle_r	mtp_angle_r	hip_flexion_l	hip_adduction_l	hip_rotation_l	knee_angle_l	knee_angle_l_beta	ankle_angle_l	subtalar_angle_l	mtp_angle_l	lumbar_extension	lumbar_bending	lumbar_rotation	arm_flex_r	arm_add_r	arm_rot_r	elbow_flex_r	pro_sup_r	arm_flex_l	arm_add_l	arm_rot_l	elbow_flex_l	pro_sup_l
      2.21666670	     -2.43306370	      1.21673333	     -2.65561984	      0.53393142	      0.83928163	      0.23735675	     19.27406015	      7.61582020	     -4.84638662	     46.72525855	      0.81550961	     37.21487048	     -5.31019504	     -7.49999987	     55.70091212	     -7.73175192	      5.75261727	     28.75215355	      0.50181975	      2.89662604	    -13.23271754	     -7.49999987	    -10.58096794	      6.41277441	     -5.11821122	     31.48884821	     -7.23222527	     65.42420853	    119.41569590	     99.44914893	     28.13216709	     -4.90919522	     63.13515498	    125.69030714	    108.25777520
      2.23333330	     -2.56307299	      0.92903342	     -2.89348374	      0.54042689	      0.83625697	      0.24088588	     19.51948475	      8.14667943	     -4.69633429	     47.19608932	      0.82372715	     37.82736490	     -5.14198219	     -7.49999987	     55.64775664	     -8.28302005	      5.51641413	     28.44407564	      0.49644277	      2.31926943	    -13.26808792	     -7.49999987	    -10.55387548	      6.60462889	     -4.78171477	     31.43837296	     -7.15247634	     64.40294915	    118.72699677	     99.39588665	     27.76488740	     -5.05476053	     62.94387106	    125.34286064	    108.17815740
      2.25000000	     -2.93223106	      0.77023340	     -3.18388996	      0.53978207	      0.83313816	      0.24061100	     20.36458757	      8.43644937	     -4.60853744	     48.20528767	      0.84134099	     38.18947608	     -5.17235674	     -7.49999987	     55.92767111	     -8.68186390	      5.34480375	     28.54921151	      0.49827774	      2.54184863	    -12.81574975	     -7.49999987	    -10.48077763	      6.75984760	     -4.50643225	     31.24376825	     -7.16486261	     64.03248586	    118.54255368	     98.07770614	     27.46449004	     -4.95119320	     62.91822650	    125.56270480	    106.81464033
      2.26666670	     -3.34384528	      0.59547217	     -3.45234111	      0.54038400	      0.82941110	      0.24095937	     21.19085807	      8.69047086	     -4.68677094	     49.01721121	      0.85551173	     38.55126842	     -4.91911422	     -7.49999987	     56.12420611	     -9.00809260	      5.38065401	     27.96031627	      0.48799958	      2.57296128	    -12.34275066	     -7.49999987	    -10.30276688	      6.96054664	     -4.34061325	     31.26915356	     -7.21532288	     63.50985472	    118.57604500	     97.45029821	     27.03539760	     -4.82160492	     63.14057001	    126.17968213	    106.16739510
      2.28333330	     -4.01308233	      0.48821573	     -3.52318444	      0.53974221	      0.82310416	      0.24040142	     22.41952941	      8.75139145	     -5.03669191	     50.17524389	      0.87572321	     39.11401898	     -4.62303290	     -7.49999987	     56.85727007	     -9.11253103	      5.62039458	     27.90381163	      0.48701339	      3.09111850	    -11.76296380	     -7.49999987	     -9.64622079	      7.06670212	     -4.68798120	     30.88907107	     -7.13154049	     63.20275807	    118.78351147	     98.86369953	     26.55748370	     -4.60912719	     62.41967847	    126.59457259	    107.67220283
      2.30000000	     -4.57920577	      0.53408184	     -3.56392103	      0.53991641	      0.82173081	      0.24056096	     23.58586317	      8.66235522	     -5.27980250	     51.30008340	      0.89535536	     39.43397229	     -4.86988017	     -7.49999987	     57.26692011	     -9.25560527	      5.25485047	     28.18362475	      0.49189705	      3.03201789	    -11.80920777	     -7.49999987	     -9.15461220	      7.04453535	     -4.66474348	     30.65118386	     -7.11109571	     63.17673572	    119.12205081	     98.28651706	     26.33135278	     -4.52935332	     62.29879074	    126.90909464	    107.23178054
      2.31666670	     -5.64003240	      0.38918930	     -3.86912109	      0.54048927	      0.81494784	      0.24055165	     25.39853331	      8.71488643	     -5.56040887	     52.72488995	      0.92022293	     39.90671991	     -4.44207343	     -7.49999987	     58.79963800	     -9.54074006	      5.48224065	     28.70095461	      0.50092616	      3.20165097	    -11.59733896	     -7.49999987	     -8.10789022	      7.30681867	     -4.49469387	     30.70003465	     -7.20858810	     63.32275267	    119.37352684	     98.53189377	     26.11632278	     -4.25729169	     62.30664458	    127.15662812	    107.49201202
      2.33333330	     -5.95836091	      0.34815029	     -3.60030171	      0.54115973	      0.81383204	      0.24062122	     26.43299302	      8.64266480	     -5.90015388	     53.99382694	      0.94237006	     40.04729792	     -5.04913992	     -7.49999987	     59.06153517	     -9.56849036	      5.16486906	     29.23869023	      0.51031141	      2.55728435	    -12.05464440	     -7.49999987	     -8.11890086	      7.49490306	     -4.54194853	     30.90299073	     -7.20154826	     63.14961660	    119.52635403	     99.88076742	     26.31422539	     -4.10069378	     62.59596659	    127.60708735	    108.84306707
      2.35000000	     -6.42937236	      0.46678008	     -3.58542688	      0.54128839	      0.81121866	      0.24084970	     27.56047782	      8.39815838	     -6.08697423	     55.07863418	      0.96130351	     40.33835681	     -5.28630815	     -7.49999987	     59.19379405	     -9.67844862	      4.59493811	     29.51732461	      0.51517450	      1.43758850	    -12.65451559	     -7.49999987	     -7.92723363	      7.43020776	     -4.40683725	     30.74373198	     -7.35060816	     63.19597822	    119.76796979	     99.05433811	     26.22733481	     -4.04211909	     63.00547063	    128.01870917	    108.44590565
